<svg xmlns="http://www.w3.org/2000/svg" xmlns:xlink="http://www.w3.org/1999/xlink" version="1.1" id="Layer_1" x="0px" y="0px" enable-background="new 0 0 1000 1000" xml:space="preserve" viewBox="0 0 1000 1000">
<rect display="none" width="1000" height="1000"/>
<g>
	<defs>
		<rect id="SVGID_1_" width="1000" height="1000"/>
	</defs>
	<clipPath id="SVGID_2_">
		<use xlink:href="#SVGID_1_" overflow="visible"/>
	</clipPath>
	<path clip-path="url(#SVGID_2_)" fill="#DA1F2D" d="M488.052,252.329c-6.593,10.813,3.84,35.383,10.979,40.424   c6.691,4.725,17.504,7.84,27.579,2.038c8.11-4.671,7.402-32.101,2.85-42.726C525.503,242.834,495.412,240.258,488.052,252.329"/>
	<path clip-path="url(#SVGID_2_)" fill="#DA1F2D" d="M664.427,316.844c13.313-9.883,30.205-11.674,38.178-7.112   c7.971,4.563,5.94,28.015,0,34.42c-9.436,10.172-33.979,10.725-41.479,1.583C652.924,335.739,658.739,321.066,664.427,316.844"/>
	<path clip-path="url(#SVGID_2_)" fill="#DA1F2D" d="M689.922,463.76c2.709,14.871,27.958,27.628,35.797,27.436   c12.364-0.303,12.329-11.198,12.329-11.198s18.646-13.983,19.586-28.825c0.693-10.947-21.979-28.297-37.48-23.425   c-11.584,3.641-21.65,22.34-21.65,22.34S688.138,453.969,689.922,463.76"/>
	<path clip-path="url(#SVGID_2_)" fill="#DA1F2D" d="M585.545,460.786c12.857-4.589,25.478,0.021,28.023,5.341   c5.208,10.879-2.836,15.692-2.836,15.692s5.853,11.407,1.516,19.319c-4.337,7.912-16.094,11.961-26.307,3.956   c-7.319-5.737-9.892-20.68-9.892-20.68s-6.013-3.396-5.34-9.238C571.501,468.302,576.211,464.117,585.545,460.786"/>
	<path clip-path="url(#SVGID_2_)" fill="#DA1F2D" d="M389.069,335.599c-4.352,6.33-2.769,28.879,3.56,33.626   c7.622,5.717,19.361,2.757,25.295-4.364c5.934-7.121,5.926-27.281,0.42-33.614C410.432,322.148,393.306,329.436,389.069,335.599"/>
	<path clip-path="url(#SVGID_2_)" fill="#DA1F2D" d="M420.857,398.587c18.271-6.525,31.264,8.435,31.264,20.764   c-0.001,12.66-15.429,36.33-23.737,37.913c-8.307,1.582-38.373-12.264-36.395-24.528   C393.967,420.473,409.78,402.543,420.857,398.587"/>
	<path clip-path="url(#SVGID_2_)" fill="#EF425C" d="M398.121,333.472c-5.727,0.453-9.495,8.198-6.225,12.627   c3.3,4.47,7.255,2.079,10.953-2.374C405.232,340.855,406.316,332.824,398.121,333.472"/>
	<path clip-path="url(#SVGID_2_)" fill="#EF425C" d="M496.48,251.417c-7.61-0.304-10.038,11.769-3.199,13.137   c6.84,1.368,10.663-1.631,10.663-6.445C503.944,252.83,500.567,251.581,496.48,251.417"/>
	<path clip-path="url(#SVGID_2_)" fill="#EF425C" d="M418.692,402.589c-7.055,3.883-10.29,8.065-4.747,13.73   c2.967,3.032,10.681,5.143,14.835-0.396c6.132-8.176,7.323-9.89,4.747-13.334C429.939,397.791,421.953,400.794,418.692,402.589"/>
	<path clip-path="url(#SVGID_2_)" fill="#EF425C" d="M580.652,475.25c-1.938,4.485,0.222,7.864,2.149,8.927   c2.711,1.493,6.915,0.23,9.363-3.441c1.582-2.374,3.862-8.397-0.265-10.08C588.077,469.097,582.433,471.13,580.652,475.25"/>
	<path clip-path="url(#SVGID_2_)" fill="#EF425C" d="M669.062,320.273c-8.597,2.875-10.172,12.497-3.842,14.678   c6.329,2.181,12.929,0.416,14.903-6.614C682.099,321.308,678.671,317.06,669.062,320.273"/>
	<path clip-path="url(#SVGID_2_)" fill="#EF425C" d="M722.714,432.341c-4.709,1.601-10.595,4.693-10.438,10.39   c0.225,8.203,8.082,7.83,14.426,6.091c6.291-1.724,14.561-13.755,8.695-16.217C730.387,430.501,727.168,430.826,722.714,432.341"/>
	<path clip-path="url(#SVGID_2_)" fill="#B22030" d="M403.461,349.599c-5.78,3.474-6.923,14.104-0.791,15.688   c6.132,1.582,11.626-0.909,12.813-4.865c1.318-4.394-0.138-10.964-4.345-11.934C408.802,347.948,406.001,348.072,403.461,349.599"/>
	<path clip-path="url(#SVGID_2_)" fill="#B22030" d="M512.253,271.065c-8.892,3.877-7.462,12.964-5.314,17.275   c2.149,4.311,9.198,7.292,16.547,2.713c8.053-5.018,7.151-17.497,1.822-19.988C521.188,269.14,517.396,268.822,512.253,271.065"/>
	<path clip-path="url(#SVGID_2_)" fill="#B22030" d="M599.425,486.762c-6.435,1.34-10.847,4.129-10.425,9.517   c0.495,6.307,3.47,9.934,10.435,8.945c7.429-1.055,10.929-5.233,10.4-10.397C609.308,489.663,605.842,485.426,599.425,486.762"/>
	<path clip-path="url(#SVGID_2_)" fill="#B22030" d="M731.554,454.049c-9.884,0-21.747,0.336-22.046,11.284   c-0.189,6.934,10.687,12.63,19.159,11.086c8.291-1.51,10.788-5.104,12.394-10.662C742.767,459.857,735.238,454.049,731.554,454.049   "/>
	<path clip-path="url(#SVGID_2_)" fill="#B22030" d="M693.248,324.898c-9.577,1.378-17.265,10.71-11.069,17.807   c6.194,7.096,10.534,5.286,16.276,0.916c5.743-4.37,6.271-9.38,5.216-12.941C702.615,327.12,698.187,324.188,693.248,324.898"/>
	<path clip-path="url(#SVGID_2_)" fill="#B22030" d="M411.138,434.376c6.985-7.785,14.966-14.799,25.409-11.799   c11.129,3.198,5.354,11.799,1.332,17.9c-5.419,8.217-22.361,19.687-26.741,12.237C406.758,445.264,404.138,442.179,411.138,434.376   "/>
</g>
<g>
	<defs>
		<rect id="SVGID_3_" width="1000" height="1000"/>
	</defs>
	<clipPath id="SVGID_4_">
		<use xlink:href="#SVGID_3_" overflow="visible"/>
	</clipPath>
	<path clip-path="url(#SVGID_4_)" fill="#DA1F2D" d="M470.055,293.879c-6.56,1.715-7.602,4.437-9.477,9.221   c-1.385,3.535-3.842,8.317-1.204,12.405c2.637,4.088,3.995,4.949,2.373,10.154c-1.756,5.638-7.252,25.714-5.274,34.583   c3.452,15.476,24.395,29.901,45.23,21.197c9.188-3.838,16.599-22.347,18.726-29.406c0.441-1.465,2.163-2.816,3.692-2.769   c3.604,0.11,8.9-1.978,11.385-12.851C539.751,317.829,493.264,287.813,470.055,293.879"/>
	<path clip-path="url(#SVGID_4_)" fill="#DA1F2D" d="M540.209,378.011c-16.353,11.077-10.286,53.934,7.121,61.451   c17.405,7.516,39.663-5.841,47.209-3.561c2.493,0.754,2.967,6.973,10.062,6.827c6.476-0.133,14.405-3.426,17.63-10.783   c6.33-14.439-0.203-40.879-4.944-52.022c-3.956-9.297-14.263-21.013-31.867-16.463c-5.913,1.528-4.133,7.166-6.705,7.76   C570.295,373.162,550.694,370.908,540.209,378.011"/>
	<path clip-path="url(#SVGID_4_)" fill="#DA1F2D" d="M693.259,344.467c-14.457-4.5-24.8,5.684-31.863,15.874   c-5.075,7.321-8.109,14.241-8.109,25.121c0,10.879,17.149,29.823,35.011,36c21.165,7.318,12.2,9.189,18.389,13.846   c11.136,8.379,25.918,0.791,38.183-15.429c13.764-18.204,13.605-35.687,8.308-47.67c-2.769-6.264-9.82-10.238-15.627-11.275   c-5.538-0.989-6.539,3.82-9.506,1.97C721.634,358.909,708.542,349.224,693.259,344.467"/>
	<path clip-path="url(#SVGID_4_)" fill="#DA1F2D" d="M561.308,255.637c-10.455,16.938,0.596,25.335,1.319,29.011   c3.155,16.053,11.389,35.898,20.57,45.363c14.242,14.68,44.466,14.856,55.912-5.803c14.176-25.582-6.214-35.196-5.274-44.571   c0.463-4.613,6.594-10.549-1.318-22.154c-7.912-11.604-21.099-15.871-37.978-15.824   C584.244,241.688,568.956,243.247,561.308,255.637"/>
	<path clip-path="url(#SVGID_4_)" fill="#DA1F2D" d="M654.67,170.187c-16.481-1.589-30.831,8.967-35.824,27.956   c-9.645,36.674,52.982,47.555,52.968,51.606c-0.021,5.361,6.121,13.543,16.088,14.592c15.033,1.582,26.037-5.377,33.23-28.484   c8.703-27.956,3.457-40.215-9.759-48.263c-7.795-4.748-12.498,0.609-16.615,0.527C691.221,188.051,676.561,172.297,654.67,170.187"/>
	<path clip-path="url(#SVGID_4_)" fill="#DA1F2D" d="M739.066,331.857c2.109,14.505,14.072,26.332,50.9,20.044   c32.44-5.539,30.33-22.681,29.275-34.286c-1.056-11.604-8.44-12.132-8.967-15.296c-1.142-6.844,3.691-25.847-1.056-34.814   c-4.747-8.967-23.209-27.956-48-20.044c-24.791,7.912-25.153,25.086-25.648,29.407c-1.385,12.066,5.836,37.088,7.45,39.956   C744.386,319.245,736.92,317.105,739.066,331.857"/>
	<path clip-path="url(#SVGID_4_)" fill="#DA1F2D" d="M474.802,441.571c-14.344,13.566,4.91,20.914,3.328,23.024   c-4.163,5.55-8.922,31.777-7.548,41.591c1.846,13.187,20.062,39.363,45.548,22.795c19.903-12.939,15.522-30.339,16.479-42.479   c0.215-2.733,3.168,0,8.626-9.327c6.143-10.496-2.681-19.783-23.708-32.439C500,434.187,480.868,435.834,474.802,441.571"/>
	<path clip-path="url(#SVGID_4_)" fill="#EF425C" d="M543.24,385.111c-5.274,6.044-5.671,10.358-2.578,14.4   c3.094,4.042,9.6,3.373,14.414-1.759c4.812-5.128,5.922-12.894,2.085-15.925C552.262,377.956,547.03,380.767,543.24,385.111"/>
	<path clip-path="url(#SVGID_4_)" fill="#EF425C" d="M571.366,257.385c-2.782,6.228-4.754,12.677-2.603,19.012   c3.002,8.836,13.932,4.89,16.513-1.102c2.985-6.935,3.046-12.721,0.702-17.554C583.106,251.82,575.457,251.397,571.366,257.385"/>
	<path clip-path="url(#SVGID_4_)" fill="#EF425C" d="M641.71,177.627c-6.029,2.582-11.039,9.015-8.138,13.659   c2.209,3.537,10.567,6.593,16.222,2.874c4.181-2.751,10.15-8.416,7.25-13.951C654.406,175.177,647.298,175.233,641.71,177.627"/>
	<path clip-path="url(#SVGID_4_)" fill="#EF425C" d="M751.917,260.736c-6.9,0.526-9.019,9.141-9.687,14.256   c-0.975,7.463,3.789,12.164,8.903,11.312c4.949-0.825,7.199-6.53,8.423-13.277C760.454,268.084,759.043,260.193,751.917,260.736"/>
	<path clip-path="url(#SVGID_4_)" fill="#EF425C" d="M489.11,450.539c-5.292,5.341-6.132,13.055-5.013,17.225   c1.258,4.687,7.387,7.105,11.54,4.441c5.457-3.5,7.871-11.456,7.132-17.19C501.967,448.789,493.177,446.435,489.11,450.539"/>
	<path clip-path="url(#SVGID_4_)" fill="#EF425C" d="M668.783,364.671c0.088,6.555,9.204,11.353,15.222,7.985   c4.179-2.339,6.907-7.739,7.434-14.038c0.479-5.737-5.762-8.644-11.088-7.055C675.255,353.082,668.683,357.101,668.783,364.671"/>
	<path clip-path="url(#SVGID_4_)" fill="#EF425C" d="M472.143,303.247c-3.42,3.791-5.269,8.116-2.464,12.617   c2.805,4.502,9.521,6.152,13.583,2.102c5.701-5.686,8.7-12.155,4.648-16.057C483.476,297.639,475.056,300.018,472.143,303.247"/>
	<path clip-path="url(#SVGID_4_)" fill="#B22030" d="M489.129,349.684c-9.169,0.629-17.904,9.43-16.128,18.397   c1.237,6.245,10.019,12.347,20.815,10.296c12.714-2.415,16.106-11.098,15.504-17.769   C508.6,352.636,499.339,348.983,489.129,349.684"/>
	<path clip-path="url(#SVGID_4_)" fill="#B22030" d="M547.405,410.207c-5.317,4.22-7.054,15.7,3.183,21.603   c8.307,4.79,23.985,2.538,30.856-3.956c5.58-5.275,6.326-17.693-3.563-21.649C567.99,402.249,553.975,404.995,547.405,410.207"/>
	<path clip-path="url(#SVGID_4_)" fill="#B22030" d="M608.347,301.762c-5.092,4.983-10.483,14.902-3.956,23.143   c6.982,8.815,18.938,4.048,23.464-1.557c5.401-6.691,10.756-19.212,1.074-25.938C623.465,293.615,613.98,296.249,608.347,301.762"/>
	<path clip-path="url(#SVGID_4_)" fill="#B22030" d="M500.352,495.11c-7.312,4.11-13.123,11.24-10.648,19.516   c3.781,12.651,15.782,11.115,23.694,5.313c7.912-5.802,11.211-13.615,9.753-19.938C521.573,493.156,507.858,490.89,500.352,495.11"/>
	<path clip-path="url(#SVGID_4_)" fill="#B22030" d="M703.402,390.842c-9.171,6.068-14.222,13.689-9.436,22.156   c3.43,6.066,13.932,10.153,23.209,4.417c5.012-3.098,12.659-11.538,10.43-20.388C725.653,389.278,711.01,385.808,703.402,390.842"/>
	<path clip-path="url(#SVGID_4_)" fill="#B22030" d="M680.549,209.343c-10.682,5.711-12.695,18.388-11.435,25.553   c1.368,7.771,13.781,11.408,19.362,7.491c5.998-4.21,13.519-15.517,11.457-24.367C698.328,211.134,686.838,205.979,680.549,209.343   "/>
	<path clip-path="url(#SVGID_4_)" fill="#B22030" d="M781.772,294.898c-9.758,6.957-15.456,14.852-14.505,27.265   c0.527,6.889,10.549,15.033,22.153,8.176s17.407-18.198,14.242-28.22S788.306,290.241,781.772,294.898"/>
	<path clip-path="url(#SVGID_4_)" fill="#64091E" d="M580.012,308.76c0.754,1.317,1.508,2.633,2.262,3.95   c0.737,1.287,1.568,2.556,2.214,3.89c-0.084-0.199-0.168-0.398-0.252-0.597c0.036,0.079,0.063,0.16,0.081,0.245   c-0.029-0.222-0.06-0.443-0.09-0.665c0.018,0.081,0.018,0.162,0,0.243c0.03-0.222,0.061-0.443,0.089-0.665   c-0.014,0.038-0.027,0.077-0.043,0.115c0.084-0.199,0.168-0.398,0.252-0.597l-0.047,0.062c0.299-0.299,0.599-0.598,0.897-0.897   c-0.021,0.015-0.042,0.029-0.063,0.044c0.199-0.084,0.398-0.168,0.598-0.252c-0.049,0.023-0.099,0.036-0.151,0.038   c0.221-0.03,0.443-0.06,0.664-0.09c-0.026-0.001-0.052-0.002-0.079-0.004c0.222,0.03,0.443,0.06,0.665,0.09   c-0.025-0.006-0.05-0.012-0.075-0.018c0.199,0.084,0.398,0.168,0.598,0.252c0.246,0.257,0.493,0.514,0.74,0.771   c0.084,0.2,0.168,0.399,0.252,0.598c-0.004-0.021-0.008-0.042-0.012-0.063v1.329c0.005-0.023,0.01-0.047,0.015-0.071   c0.271-1.276-0.376-2.763-1.745-3.075c-1.256-0.286-2.786,0.378-3.076,1.746c-0.312,1.47,0.408,2.905,1.898,3.334   c1.21,0.349,2.518-0.151,3.191-1.209c0.662-1.037,0.486-2.265-0.047-3.306c-0.263-0.512-0.572-1.005-0.858-1.504   c-1.187-2.072-2.374-4.146-3.561-6.218c-0.65-1.135-2.292-1.624-3.42-0.896C579.762,306.079,579.315,307.545,580.012,308.76"/>
	<path clip-path="url(#SVGID_4_)" fill="#64091E" d="M594.557,309.332c2.502,3.272,4.607,6.828,6.275,10.595   c0.531,1.2,2.374,1.572,3.421,0.896c1.242-0.801,1.466-2.137,0.897-3.421c-1.668-3.767-3.774-7.322-6.277-10.595   c-0.413-0.54-0.81-0.96-1.494-1.148c-0.598-0.165-1.395-0.091-1.926,0.252C594.431,306.57,593.706,308.221,594.557,309.332"/>
	<path clip-path="url(#SVGID_4_)" fill="#64091E" d="M486.881,321.059c-1.724,4.409-3.448,8.818-5.172,13.227   c-0.477,1.221,0.524,2.797,1.746,3.075c1.436,0.327,2.564-0.439,3.076-1.746c1.724-4.409,3.447-8.818,5.171-13.227   c0.478-1.221-0.523-2.797-1.746-3.075C488.52,318.986,487.392,319.752,486.881,321.059"/>
	<path clip-path="url(#SVGID_4_)" fill="#64091E" d="M504.78,325.866c-1.912,4.23-3.824,8.46-5.736,12.689   c-0.537,1.189-0.381,2.745,0.897,3.421c1.094,0.578,2.845,0.375,3.42-0.897c1.912-4.23,3.824-8.46,5.736-12.689   c0.538-1.189,0.382-2.745-0.897-3.421C507.106,324.391,505.355,324.594,504.78,325.866"/>
	<path clip-path="url(#SVGID_4_)" fill="#64091E" d="M699.848,416.438c3.1,2.445,6.2,4.889,9.3,7.334l2.433-4.178l-1.898-0.557   c-1.255-0.368-2.779,0.444-3.076,1.746c-0.305,1.34,0.403,2.681,1.747,3.075c0.632,0.186,1.265,0.371,1.898,0.557   c1.021,0.299,2.315-0.189,2.822-1.149c0.208-0.393,0.322-0.818,0.343-1.262c0.023-0.551-0.283-1.413-0.733-1.767   c-3.1-2.445-6.2-4.89-9.299-7.335c-0.543-0.427-1.048-0.732-1.769-0.732c-0.612,0-1.346,0.273-1.768,0.732   C699.021,413.803,698.751,415.572,699.848,416.438"/>
	<path clip-path="url(#SVGID_4_)" fill="#64091E" d="M712.82,407.665c2.978,3.216,6.372,6.047,10.039,8.446   c0.841-1.439,1.682-2.878,2.523-4.317c-0.649-0.276-1.3-0.553-1.949-0.829c-0.646-0.274-1.219-0.447-1.927-0.252   c-0.58,0.16-1.208,0.608-1.493,1.149c-0.308,0.58-0.461,1.283-0.253,1.927c0.186,0.573,0.567,1.246,1.149,1.494   c0.65,0.276,1.299,0.552,1.949,0.828c0.646,0.275,1.219,0.447,1.927,0.252c0.579-0.159,1.208-0.608,1.494-1.149   c0.659-1.248,0.272-2.654-0.897-3.42c-0.849-0.556-1.683-1.134-2.498-1.738c-0.203-0.151-0.405-0.305-0.607-0.458   c-0.248-0.187,0.399,0.315,0.038,0.029c-0.088-0.07-0.177-0.14-0.267-0.21c-0.419-0.333-0.833-0.673-1.24-1.019   c-1.57-1.331-3.055-2.759-4.452-4.269c-0.892-0.961-2.647-0.968-3.536,0C711.875,405.159,711.87,406.639,712.82,407.665"/>
	<path clip-path="url(#SVGID_4_)" fill="#64091E" d="M750.949,291.233c0.284,4.67,0.877,9.323,1.763,13.917   c0.248,1.287,1.859,2.139,3.075,1.746c1.371-0.444,2.012-1.696,1.745-3.075c-0.21-1.094-0.405-2.191-0.581-3.291   c-0.081-0.507-0.158-1.016-0.232-1.524c-0.036-0.255-0.073-0.509-0.107-0.764c0.06,0.434-0.049-0.392-0.06-0.483   c-0.271-2.168-0.469-4.345-0.603-6.526c-0.078-1.303-1.093-2.563-2.5-2.5C752.164,288.792,750.864,289.835,750.949,291.233"/>
	<path clip-path="url(#SVGID_4_)" fill="#64091E" d="M769.367,292.521c0.967,5.18,2.012,10.345,3.134,15.494   c0.223,1.026,1.364,1.883,2.41,1.836c1.012-0.046,2.239-0.734,2.411-1.836c0.299-1.936,0.079-3.601-0.688-5.402   c-0.514-1.208-2.385-1.565-3.421-0.897c-1.255,0.809-1.447,2.128-0.896,3.42c-0.119-0.28,0.203,0.931,0.153,0.58   c0.025,0.178,0.029,0.366,0.031,0.546c0,0.001-0.058,0.783-0.001,0.424h4.821c-1.122-5.149-2.168-10.314-3.135-15.494   c-0.239-1.289-1.864-2.138-3.074-1.746C769.734,289.892,769.108,291.141,769.367,292.521"/>
	<path clip-path="url(#SVGID_4_)" fill="#64091E" d="M488.919,464.1c-1.896,3.638-3.983,7.173-6.253,10.59   c-0.725,1.091-0.25,2.814,0.897,3.42c1.256,0.664,2.647,0.268,3.421-0.896c2.27-3.417,4.357-6.951,6.252-10.589   c0.604-1.159,0.337-2.769-0.897-3.421C491.19,462.596,489.564,462.862,488.919,464.1"/>
	<path clip-path="url(#SVGID_4_)" fill="#64091E" d="M501.66,469.992c-1.056,3.692-2.112,7.384-3.167,11.076   c-0.359,1.257,0.439,2.778,1.746,3.075c1.332,0.304,2.691-0.4,3.076-1.746c1.055-3.692,2.111-7.384,3.167-11.076   c0.36-1.256-0.438-2.777-1.746-3.075C503.403,467.941,502.046,468.646,501.66,469.992"/>
	<path clip-path="url(#SVGID_4_)" fill="#64091E" d="M670.829,225.003c1.371-1.544,2.783-3.051,4.237-4.516   c0.694-0.697,1.398-1.386,2.111-2.064c0.394-0.374,0.788-0.744,1.187-1.111c0.181-0.167,0.361-0.334,0.544-0.5   c0.072-0.066,0.146-0.132,0.219-0.199c0.644-0.519,0.191-0.453-1.357,0.197c-0.367-0.214-0.735-0.428-1.103-0.643   c0.343,0.292-0.121-0.356,0.02,0.027c0.085,0.229,0.265,0.448,0.39,0.66c0.259,0.441,0.518,0.881,0.776,1.321   c0.518,0.881,1.035,1.761,1.554,2.642c1.035,1.761,2.071,3.522,3.107,5.283c0.633,1.076,1.985,1.502,3.122,1.023   c1.196-0.505,1.689-1.709,1.447-2.95c-0.172-0.883-0.851-1.787-1.683-2.156c-1.192-0.528-2.741-0.388-3.421,0.897   c-0.573,1.086-0.38,2.855,0.897,3.421c-0.251-0.241-0.457-0.518-0.615-0.832c1.523-0.643,3.046-1.285,4.569-1.927   c-1.217-2.069-2.435-4.138-3.651-6.207c-0.596-1.013-1.19-2.026-1.787-3.038c-0.748-1.271-1.624-2.58-3.308-2.494   c-1.47,0.074-2.465,1.203-3.474,2.14c-0.829,0.77-1.647,1.553-2.452,2.35c-1.679,1.659-3.298,3.376-4.866,5.14   c-0.868,0.978-1.035,2.586,0,3.536C668.243,225.875,669.902,226.047,670.829,225.003"/>
	<path clip-path="url(#SVGID_4_)" fill="#64091E" d="M690.989,200.975c-4.302-2.074-8.806-3.702-13.458-4.78   c-1.271-0.295-2.768,0.393-3.075,1.746c-0.291,1.276,0.383,2.759,1.746,3.075c2.18,0.506,4.332,1.123,6.444,1.862   c1.057,0.37,2.101,0.771,3.136,1.195c0.729,0.299-0.437-0.193,0.286,0.122c0.293,0.127,0.586,0.255,0.877,0.387   c0.51,0.229,1.017,0.467,1.52,0.71c1.176,0.567,2.756,0.362,3.421-0.897C692.477,203.277,692.247,201.581,690.989,200.975"/>
	<path clip-path="url(#SVGID_4_)" fill="#64091E" d="M584.669,377.356c-1.275,1.277-2.552,2.554-3.827,3.831   c-0.559,0.559-1.115,1.119-1.675,1.676c-0.269,0.268-0.532,0.568-0.834,0.799c0.148-0.109,0.099-0.081-0.149,0.086   c0.207-0.055,0.166-0.043-0.123,0.035c0.634,0.048,0.733,0.022,0.302-0.077c0.196,0.068,0.157,0.036-0.118-0.097   c-0.344-0.235-0.72-0.435-1.077-0.652c-0.66-0.4-1.319-0.801-1.979-1.202c-1.509-0.915-3.018-1.831-4.525-2.746   c-0.841,1.439-1.682,2.878-2.522,4.317c0.334,0.179,0.669,0.357,1.004,0.536c1.19,0.636,2.721,0.3,3.421-0.897   c0.663-1.133,0.298-2.782-0.897-3.42c-0.335-0.179-0.67-0.358-1.005-0.536c-1.19-0.636-2.72-0.3-3.42,0.896   c-0.694,1.186-0.261,2.718,0.897,3.421c1.695,1.03,3.393,2.06,5.09,3.09c1.81,1.099,3.66,2.609,5.904,2.225   c1.955-0.335,3.314-1.988,4.645-3.32c1.475-1.476,2.95-2.953,4.426-4.429c0.954-0.956,0.955-2.581,0-3.536   C587.247,376.398,585.626,376.398,584.669,377.356"/>
	<path clip-path="url(#SVGID_4_)" fill="#64091E" d="M577.541,408.615c1.363-3.218,3.173-6.571,5.449-9.149   c0.061-0.067,0.321-0.267,0.333-0.347c-0.055,0.355-0.92,0.03-1.051,0.241c0.04-0.064,0.821,0.372,0.987,0.454   c0.924,0.455,1.848,0.91,2.771,1.366c1.9,0.936,3.799,1.872,5.698,2.809c1.21,0.596,2.705,0.326,3.42-0.897   c0.646-1.103,0.319-2.821-0.896-3.421c-2.155-1.062-4.312-2.125-6.468-3.188c-2.225-1.097-4.854-3.011-7.307-1.442   c-0.97,0.621-1.647,1.647-2.33,2.546c-0.653,0.857-1.272,1.74-1.854,2.648c-1.189,1.862-2.21,3.823-3.07,5.856   c-0.527,1.242-0.373,2.678,0.896,3.421C575.169,410.125,577.011,409.865,577.541,408.615"/>
	<path clip-path="url(#SVGID_4_)" fill="#64091E" d="M483.219,339.683c-2.637,1.221-9.191,24.025-1.524,27.645   c7.275,3.435,19.767-16.255,19.767-18.883C501.461,344.698,485.821,338.478,483.219,339.683"/>
	<path clip-path="url(#SVGID_4_)" fill="#64091E" d="M570.255,389.126c1.289,2.616,1.706,7.777,1.289,9.786   c-0.578,2.788-28.656,5.023-29.424-0.791C541.232,391.389,568.587,385.742,570.255,389.126"/>
	<path clip-path="url(#SVGID_4_)" fill="#64091E" d="M587.637,324.447c1.166-1.685,15.557-1.779,16.754,0.458   c2.609,4.874-0.556,10.117-6.489,8.139S586.67,325.844,587.637,324.447"/>
	<path clip-path="url(#SVGID_4_)" fill="#64091E" d="M668.94,192.347c-1.388-5.25-19.712,1.84-21.87,5.994   c-2.678,5.154,6.361,24.464,10.589,22.89C663.785,218.949,669.889,195.938,668.94,192.347"/>
	<path clip-path="url(#SVGID_4_)" fill="#64091E" d="M479.044,485.671c3.958-3.25,16.737,2.5,20.956,5.219   c4.219,2.72-4.701,19.255-12.048,17.738C480.604,507.11,474.319,489.551,479.044,485.671"/>
	<path clip-path="url(#SVGID_4_)" fill="#64091E" d="M687.38,387.846c-4.814,4.274-6.327,27.969-0.642,25.81   c5.687-2.158,18.347-11.124,22.436-17.099C713.262,390.582,693.256,382.628,687.38,387.846"/>
	<path clip-path="url(#SVGID_4_)" fill="#64091E" d="M759.797,262.083c3.867-1.374,9.193-0.131,11.98,2.874   c4.911,5.295,7.407,13.748,3.697,14.932c-5.815,1.858-22.135-0.252-24.524-2.362S754.869,263.834,759.797,262.083"/>
</g>
<g>
	<defs>
		<rect id="SVGID_5_" width="1000" height="1000"/>
	</defs>
	<clipPath id="SVGID_6_">
		<use xlink:href="#SVGID_5_" overflow="visible"/>
	</clipPath>
	<path clip-path="url(#SVGID_6_)" fill="#DA1F2D" d="M472.297,726.427c8.31,17.88,32.36,42.15,29.38,55.56   c-3.95,17.801-103.25,81.891-131.73,93.971c-26.19,11.109-45.09-61.53-56.57-61.53c-18.2,0-81.89,30.85-96.53,15.42   c-14.16-14.92-32.3-89.92-41.54-100.08c-7.91-8.71-63.69-16.22-62.9-37.979c0.52-14.37,15.714-33.305,29.27-53.41   c15.531-23.035,30.1-36.287,33.847-46.737c5.316-14.822-10.091-32.884-13.684-57.331c-3.034-20.641-4.892-28.918-4.513-87.912   c0.507-78.995,40.26-85.012,99.472-83.95c6.447,0.116,97.448-3.233,101.885,1.445L545.42,560.768   c5.304,5.592,0.103,88.169-0.182,96.227c-2.088,59.049-43.777,50.763-69.352,53.612   C469.896,711.274,469.757,720.957,472.297,726.427"/>
	<path clip-path="url(#SVGID_6_)" fill="#DA1F2D" d="M584.187,570.296c-0.521-18.989,260.044-91.78,264.956-79.099   c7.14,18.437-47.521,134.947-91.493,156.737C719.354,666.91,584.435,579.313,584.187,570.296"/>
	<path clip-path="url(#SVGID_6_)" fill="#B22030" d="M321.812,811.311c-0.874,0.563-1.177,1.69-0.714,2.621   c2.393,4.807,9.576,18.69,13.723,20.784c7.112,3.589,11.784,1.663,19.433-10.469c7.224-11.459,6.574-25.292,5.676-27.288   c-2.446-5.43-12.671-0.352-19.061,3.075C332.539,804.501,324.944,809.292,321.812,811.311"/>
	<path clip-path="url(#SVGID_6_)" fill="#B22030" d="M469.985,704.024c4.658-5.239,7.831-31.854,1.918-34.112   c-5.96-2.278-19.396-3.665-30.76-2.074C429.179,669.513,466.042,708.46,469.985,704.024"/>
	<path clip-path="url(#SVGID_6_)" fill="#B22030" d="M187.729,568.847c-1.305,8.589,2.49,23.807,13.837,30.478   c7.2,4.233,12.18-2.82,12.728-10.723c0.638-9.211-4.922-22.585-10.955-27.634C196.493,555.236,188.824,561.639,187.729,568.847"/>
	<path clip-path="url(#SVGID_6_)" fill="#B22030" d="M748.056,594.293c-13.943,11.356-19.239,27.414-12.361,34.519   c8.704,8.989,20.514,3.267,31.649-4.568c10.681-7.517,19.664-25.779,12.938-33.493   C773.557,583.036,758.268,585.976,748.056,594.293"/>
	<path clip-path="url(#SVGID_6_)" fill="#64091E" d="M211.049,759.864c16.017,1.253,30.67-8.045,40.873-19.643   c2.951-3.354,5.657-6.931,8.219-10.59c1.504-2.149,0.46-5.65-1.794-6.841c-2.56-1.353-5.235-0.499-6.841,1.794   c-0.651,0.929-1.309,1.853-1.982,2.767c-0.337,0.457-0.68,0.909-1.02,1.365c-0.345,0.451-0.344,0.451,0.004,0.001   c-0.174,0.225-0.349,0.448-0.526,0.671c-1.319,1.67-2.69,3.299-4.124,4.871c-1.525,1.671-3.122,3.278-4.8,4.796   c-0.838,0.758-1.696,1.493-2.575,2.203c-0.219,0.177-0.441,0.353-0.663,0.527c0.454-0.35,0.454-0.353,0.002-0.01   c-0.401,0.291-0.798,0.587-1.203,0.873c-1.827,1.288-3.741,2.454-5.73,3.476c-0.514,0.264-1.033,0.519-1.557,0.763   c-0.182,0.085-1.858,0.792-0.79,0.364c-1.004,0.401-2.016,0.777-3.046,1.107c-1.026,0.329-2.065,0.618-3.114,0.862   c-0.558,0.129-1.119,0.247-1.683,0.351c-0.222,0.041-2.047,0.299-0.791,0.148c-2.282,0.273-4.568,0.323-6.859,0.144   c-2.614-0.203-5.114,2.446-5,5C206.178,757.749,208.249,759.646,211.049,759.864"/>
	<path clip-path="url(#SVGID_6_)" fill="#64091E" d="M269.672,605.112c3.939,31.875-3.454,50.271-13.067,50.334   c-7.641,0.049-19.703-17.958-22.691-42.687c-2.987-24.727,1.336-45.099,9.248-49.846   C251.406,557.968,265.457,571.002,269.672,605.112"/>
	<path clip-path="url(#SVGID_6_)" fill="#EF425C" d="M122.187,679.43c-4.591,8.925-1.852,16.804,0.645,18.099   c3.707,1.921,8.982,1.974,12.515-5.376c4.404-9.162,5.421-18.055,0.486-20.748C131.286,668.922,125.39,673.204,122.187,679.43"/>
	<path clip-path="url(#SVGID_6_)" fill="#EF425C" d="M175.411,397.003c-7.569,13.486-2.174,22.348,5.775,22.348   c10.564,0,10.638-5.267,19.728-15.026c7.876-8.455,16.832-13.263,18.635-18.091c3.586-9.606-7.73-14.381-15.29-12.472   C196.007,375.845,182.716,383.985,175.411,397.003"/>
</g>
<g>
	<defs>
		<rect id="SVGID_7_" width="1000" height="1000"/>
	</defs>
	<clipPath id="SVGID_8_">
		<use xlink:href="#SVGID_7_" overflow="visible"/>
	</clipPath>
	<path clip-path="url(#SVGID_8_)" fill="#FFFFFF" d="M604.465,585.796c0.539-0.002,58.322-2.431,72.707-3.035   c1.502-0.063,4.16,0.347,1.007-3.444c-4.883-5.865-18.887-19.239-40.154-17.586c-11.697,0.918-21.586,5.389-29.063,10.194   c1.327-2.914,2.458-6.419,3.306-10.583c3.394-16.699-1.116-31.311-9.563-32.425c-11.201-1.472-17.424,15.233-19.709,26.474   c-1.693,8.33-0.321,17.293,2.925,22.861c-6.465,2.839-12.833,11.974-14.82,21.754c-3.783,18.608,3.401,28.947,9.604,30.208   c5.557,1.13,14.592-4.454,17.856-19.883c0.823,12.913,1.7,33.817,8.487,41.188c11.733,12.711,23.033,17.463,28.262,19.1   c1.211,0.379,2.296-0.854,1.778-2.014c-6.284-14.097-34.237-76.812-35.047-78.856C601.13,587.443,601.536,585.806,604.465,585.796    M592.569,555.275c2.062-8.988,3.922-15.979,7.156-15.32c1.782,0.361,2.2,5.691,0.124,15.902   c-2.392,11.761-4.357,14.055-6.141,13.691C591.514,569.103,590.656,563.633,592.569,555.275 M582.339,618.44   c-3.742-0.761-3.503-6.255-1.879-14.241c1.625-7.996,5.781-13.83,7.85-13.41c2.067,0.421,3.228,2.63,0.162,15.092   C586.376,614.396,584.279,618.835,582.339,618.44"/>
	<path clip-path="url(#SVGID_8_)" fill="#FFFFFF" d="M534.929,541.327c7.085,7.587,14.171,15.173,21.256,22.76   c1.79,1.916,5.287,1.943,7.071,0c1.884-2.052,1.909-5.026,0-7.07l-2.355-2.521c-1.789-1.917-5.287-1.943-7.07,0   c-1.884,2.052-1.909,5.027,0,7.071c0.785,0.84,1.569,1.681,2.354,2.521c2.357-2.356,4.714-4.714,7.071-7.07   c-7.085-7.587-14.171-15.173-21.256-22.761c-1.789-1.916-5.287-1.943-7.071,0C533.045,536.309,533.02,539.283,534.929,541.327"/>
	<path clip-path="url(#SVGID_8_)" fill="#FFFFFF" d="M495.223,497.541c7.085,7.586,14.171,15.172,21.256,22.76   c1.79,1.916,5.287,1.942,7.071,0c1.884-2.053,1.909-5.027,0-7.071c-0.785-0.841-1.57-1.681-2.354-2.521   c-1.79-1.917-5.287-1.943-7.071,0c-1.884,2.053-1.909,5.027,0,7.071c0.784,0.84,1.569,1.681,2.354,2.521   c2.357-2.357,4.714-4.715,7.071-7.071c-7.085-7.587-14.171-15.173-21.256-22.76c-1.789-1.916-5.287-1.944-7.071,0   C493.339,492.521,493.313,495.496,495.223,497.541"/>
	<path clip-path="url(#SVGID_8_)" fill="#FFFFFF" d="M455.295,455.485c7.085,7.587,14.171,15.173,21.256,22.76   c1.79,1.916,5.287,1.943,7.071,0c1.884-2.052,1.909-5.027,0-7.071c-0.785-0.841-1.57-1.681-2.355-2.521   c-1.789-1.917-5.287-1.944-7.071,0c-1.883,2.052-1.909,5.027,0,7.071c0.785,0.84,1.57,1.68,2.355,2.521   c2.357-2.357,4.714-4.714,7.071-7.071c-7.085-7.587-14.171-15.173-21.256-22.76c-1.789-1.916-5.287-1.944-7.071,0   C453.411,450.466,453.386,453.441,455.295,455.485"/>
	<path clip-path="url(#SVGID_8_)" fill="#FFFFFF" d="M416.595,414.024c7.085,7.587,14.171,15.173,21.256,22.76   c1.79,1.916,5.287,1.943,7.071,0c1.884-2.052,1.909-5.027,0-7.071c-0.785-0.841-1.57-1.681-2.355-2.521   c-1.789-1.917-5.286-1.944-7.071,0c-1.883,2.052-1.909,5.027,0,7.071c0.785,0.84,1.57,1.681,2.355,2.521   c2.357-2.357,4.714-4.714,7.071-7.071c-7.085-7.587-14.171-15.173-21.256-22.76c-1.789-1.916-5.287-1.944-7.071,0   C414.71,409.005,414.686,411.98,416.595,414.024"/>
	<path clip-path="url(#SVGID_8_)" fill="#FFFFFF" d="M376.52,370.937c7.085,7.587,14.171,15.173,21.256,22.76   c1.79,1.916,5.287,1.943,7.071,0c1.884-2.052,1.909-5.027,0-7.071c-0.785-0.841-1.57-1.681-2.355-2.521   c-1.789-1.917-5.286-1.944-7.071,0c-1.883,2.052-1.909,5.027,0,7.071c0.785,0.84,1.57,1.68,2.355,2.521   c2.357-2.357,4.714-4.714,7.071-7.071c-7.085-7.587-14.171-15.173-21.256-22.76c-1.789-1.916-5.287-1.944-7.071,0   C374.636,365.918,374.61,368.893,376.52,370.937"/>
	<path clip-path="url(#SVGID_8_)" fill="#FFFFFF" d="M337.139,325.364l20.676,23.288c1.742,1.962,5.319,1.909,7.072,0   c1.921-2.094,1.858-4.978,0-7.071c-0.764-0.86-1.528-1.72-2.291-2.58c-1.742-1.962-5.318-1.909-7.071,0   c-1.922,2.094-1.858,4.978,0,7.071c0.763,0.86,1.527,1.72,2.29,2.58c2.357-2.357,4.715-4.714,7.072-7.071l-20.677-23.288   c-1.742-1.962-5.318-1.909-7.071,0C335.217,320.387,335.281,323.271,337.139,325.364"/>
</g>
<g>
	<defs>
		<rect id="SVGID_9_" width="1000" height="1000"/>
	</defs>
	<clipPath id="SVGID_10_">
		<use xlink:href="#SVGID_9_" overflow="visible"/>
	</clipPath>
	<g opacity="0.47" clip-path="url(#SVGID_10_)">
		<g>
			<defs>
				<rect id="SVGID_11_" x="48.583" width="902.835" height="1000"/>
			</defs>
			<clipPath id="SVGID_12_">
				<use xlink:href="#SVGID_11_" overflow="visible"/>
			</clipPath>
		</g>
	</g>
</g>
</svg>